HIERARCHY
ROOT Hips
{
	OFFSET 0.000000 0.000000 0.000000
	CHANNELS 6 Xposition Yposition Zposition Zrotation Yrotation Xrotation 
	JOINT LHipJoint
	{
		OFFSET 0.000000 0.000000 0.000000
		CHANNELS 3 Zrotation Yrotation Xrotation
		JOINT LeftUpLeg
		{
			OFFSET 1.363060 -1.794630 0.839290
			CHANNELS 3 Zrotation Yrotation Xrotation
			JOINT LeftLeg
			{
				OFFSET 2.448110 -6.726130 0.000000
				CHANNELS 3 Zrotation Yrotation Xrotation
				JOINT LeftFoot
				{
					OFFSET 2.562200 -7.039590 0.000000
					CHANNELS 3 Zrotation Yrotation Xrotation
					JOINT LeftToeBase
					{
						OFFSET 0.157640 -0.433110 2.322550
						CHANNELS 3 Zrotation Yrotation Xrotation
						End Site
						{
							OFFSET 0.000000 0.000000 0.000000
						}
					}
				}
			}
		}
	}
	JOINT RHipJoint
	{
		OFFSET 0.000000 0.000000 0.000000
		CHANNELS 3 Zrotation Yrotation Xrotation
		JOINT RightUpLeg
		{
			OFFSET -1.305520 -1.794630 0.839290
			CHANNELS 3 Zrotation Yrotation Xrotation
			JOINT RightLeg
			{
				OFFSET -2.542530 -6.985550 0.000000
				CHANNELS 3 Zrotation Yrotation Xrotation
				JOINT RightFoot
				{
					OFFSET -2.568260 -7.056230 0.000000
					CHANNELS 3 Zrotation Yrotation Xrotation
					JOINT RightToeBase
					{
						OFFSET -0.164730 -0.452590 2.363150
						CHANNELS 3 Zrotation Yrotation Xrotation
						End Site
						{
							OFFSET 0.000000 0.000000 0.000000
						}
					}
				}
			}
		}
	}
	JOINT LowerBack
	{
		OFFSET 0.000000 0.000000 0.000000
		CHANNELS 3 Zrotation Yrotation Xrotation
		JOINT Spine
		{
			OFFSET 0.028270 2.035590 -0.193380
			CHANNELS 3 Zrotation Yrotation Xrotation
			JOINT Spine1
			{
				OFFSET 0.056720 2.048850 -0.042750
				CHANNELS 3 Zrotation Yrotation Xrotation
				JOINT Neck
				{
					OFFSET 0.000000 0.000000 0.000000
					CHANNELS 3 Zrotation Yrotation Xrotation
					JOINT Neck1
					{
						OFFSET -0.054170 1.746240 0.172020
						CHANNELS 3 Zrotation Yrotation Xrotation
						JOINT Head
						{
							OFFSET 0.104070 1.761360 -0.123970
							CHANNELS 3 Zrotation Yrotation Xrotation
							End Site
							{
								OFFSET 0.000000 0.000000 0.000000
							}
						}
					}
				}
				JOINT LeftShoulder
				{
					OFFSET 0.000000 0.000000 0.000000
					CHANNELS 3 Zrotation Yrotation Xrotation
					JOINT LeftArm
					{
						OFFSET 3.362410 1.200890 -0.311210
						CHANNELS 3 Zrotation Yrotation Xrotation
						JOINT LeftForeArm
						{
							OFFSET 4.983000 -0.000000 -0.000000
							CHANNELS 3 Zrotation Yrotation Xrotation
							JOINT LeftHand
							{
								OFFSET 3.483560 -0.000000 -0.000000
								CHANNELS 3 Zrotation Yrotation Xrotation
								JOINT LeftFingerBase
								{
									OFFSET 0.000000 0.000000 0.000000
									CHANNELS 3 Zrotation Yrotation Xrotation
									JOINT LeftHandIndex1
									{
										OFFSET 0.715260 -0.000000 -0.000000
										CHANNELS 3 Zrotation Yrotation Xrotation
										End Site
										{
											OFFSET 0.000000 0.000000 0.000000
										}
									}
								}
								JOINT LThumb
								{
									OFFSET 0.000000 0.000000 0.000000
									CHANNELS 3 Zrotation Yrotation Xrotation
									End Site
									{
										OFFSET 0.000000 0.000000 0.000000
									}
								}
							}
						}
					}
				}
				JOINT RightShoulder
				{
					OFFSET 0.000000 0.000000 0.000000
					CHANNELS 3 Zrotation Yrotation Xrotation
					JOINT RightArm
					{
						OFFSET -3.136600 1.374050 -0.404650
						CHANNELS 3 Zrotation Yrotation Xrotation
						JOINT RightForeArm
						{
							OFFSET -5.241900 -0.000000 -0.000000
							CHANNELS 3 Zrotation Yrotation Xrotation
							JOINT RightHand
							{
								OFFSET -3.444170 -0.000000 -0.000000
								CHANNELS 3 Zrotation Yrotation Xrotation
								JOINT RightFingerBase
								{
									OFFSET 0.000000 0.000000 0.000000
									CHANNELS 3 Zrotation Yrotation Xrotation
									JOINT RightHandIndex1
									{
										OFFSET -0.622530 -0.000000 -0.000000
										CHANNELS 3 Zrotation Yrotation Xrotation
										End Site
										{
											OFFSET 0.000000 0.000000 0.000000
										}
									}
								}
								JOINT RThumb
								{
									OFFSET 0.000000 0.000000 0.000000
									CHANNELS 3 Zrotation Yrotation Xrotation
									End Site
									{
										OFFSET 0.000000 0.000000 0.000000
									}
								}
							}
						}
					}
				}
			}
		}
	}
}
MOTION
Frames: 9
Frame Time: 0.008333
-11.713572 15.713862 -3.343658 -69.976033 84.145657 -38.957523 -8.482077 -3.358648 -1.275578 -5.341830 0.023420 -70.948767 -0.663963 3.864313 54.692212 1.894664 7.132763 -11.756275 -0.227700 0.000000 -21.711300 10.712110 -1.843410 -5.669054 12.804006 -7.567041 -21.734860 1.450689 -3.760883 50.488041 -0.052510 2.569988 -7.804328 -0.004400 0.000000 -76.225000 1.429138 0.438750 10.681782 -0.602044 0.826909 -1.465490 -6.118819 0.827069 -2.765014 10.631609 -5.437660 -6.600602 -2.498521 -0.172790 -0.195783 0.000000 0.000000 0.000000 0.209462 9.077683 2.486534 -72.053982 28.033830 6.702705 -179.996667 -87.753899 179.976216 7.464583 1.704381 0.101843 -0.091534 0.178121 -0.000000 0.000000 0.000000 0.000000 0.000000 0.000000 0.000000 8.748490 1.978168 0.506287 65.385554 2.202735 10.999007 179.411477 78.780993 179.983470 -2.771903 3.972206 -0.109237 0.064971 -0.480021 0.000000 0.000000 0.000000 0.000000 0.000000 0.000000 0.000000 
-11.515505 15.676124 -3.353361 -67.410559 83.572103 -36.738310 -8.513372 -3.368176 -1.459443 -5.066040 0.624948 -70.532359 -0.556331 4.007971 56.470774 2.008974 7.663090 -12.863936 -0.423900 0.000000 -21.801500 10.820282 -1.831354 -5.502218 12.808334 -6.729078 -21.696297 1.063874 -3.852567 52.329520 -0.122306 1.854970 -5.800158 0.026600 -0.000000 -76.740400 1.461428 0.440052 10.701327 -0.614305 0.822411 -1.466985 -6.213659 0.820716 -2.773525 10.691544 -5.412343 -6.546490 -2.556565 -0.177731 -0.177492 0.000000 0.000000 0.000000 0.044396 8.827852 2.453931 -71.539107 27.012635 6.831100 179.986906 -88.384969 179.974942 7.820145 1.981208 0.126177 -0.099848 0.174592 -0.000000 0.000000 0.000000 0.000000 0.000000 0.000000 0.000000 9.123950 1.921156 0.557732 65.626777 1.709272 11.473224 179.459434 79.783486 179.985015 -2.588389 4.086679 -0.104443 0.059633 -0.473934 -0.000000 0.000000 0.000000 0.000000 0.000000 0.000000 0.000000 
-11.320182 15.643140 -3.360761 -65.401089 83.109586 -35.042631 -8.552386 -3.364434 -1.620800 -4.873491 1.125200 -70.048095 -0.478093 4.128413 58.012353 2.127314 8.184183 -14.099499 -0.659500 -0.000000 -22.263000 10.919178 -1.804706 -5.365494 12.807052 -6.045374 -21.856554 0.685249 -3.946223 54.303086 -0.228028 0.993294 -3.877017 0.016399 -0.000000 -76.602700 1.478482 0.419223 10.722446 -0.628418 0.794477 -1.465176 -6.304834 0.791080 -2.773762 10.727003 -5.386525 -6.483710 -2.617589 -0.182897 -0.157417 0.000000 0.000000 0.000000 -0.129688 8.545926 2.422628 -70.927655 25.797595 7.039075 179.967201 -89.127078 179.973357 8.229865 2.306314 0.156816 -0.109531 0.170919 -0.000000 0.000000 0.000000 0.000000 0.000000 0.000000 0.000000 9.498410 1.831632 0.603508 65.910952 1.180519 11.866737 179.516350 80.901401 179.986112 -2.463407 4.223820 -0.102151 0.055044 -0.467482 0.000000 0.000000 0.000000 0.000000 0.000000 0.000000 0.000000 
-11.128035 15.615527 -3.366084 -63.792922 82.758234 -33.719583 -8.597131 -3.347683 -1.759222 -4.750722 1.516202 -69.495270 -0.423554 4.224684 59.326352 2.247464 8.690321 -15.401703 -0.927300 -0.000000 -23.038101 11.011887 -1.761969 -5.266020 12.796909 -5.543601 -22.204529 0.323814 -4.040580 56.380243 -0.369143 -0.024455 -2.117809 -0.048899 0.000000 -75.837100 1.488416 0.376559 10.751835 -0.642567 0.744067 -1.459190 -6.392403 0.739121 -2.768424 10.734921 -5.368513 -6.411785 -2.680753 -0.188226 -0.135450 0.000000 0.000000 0.000000 -0.325858 8.212681 2.392573 -70.223735 24.418701 7.296154 179.944361 -89.950075 179.971455 8.687621 2.667770 0.193759 -0.120299 0.167267 0.000000 0.000000 0.000000 0.000000 0.000000 0.000000 0.000000 9.866473 1.699997 0.646038 66.232460 0.632909 12.179814 179.581582 82.144640 179.986595 -2.426648 4.372341 -0.103561 0.051909 -0.460456 0.000000 0.000000 0.000000 0.000000 0.000000 0.000000 0.000000 
-10.939412 15.593667 -3.369593 -62.464068 82.509493 -32.649775 -8.646542 -3.318797 -1.876474 -4.684903 1.803366 -68.877378 -0.387250 4.297682 60.429679 2.366004 9.173956 -16.703003 -1.215900 -0.000000 -24.040200 11.099386 -1.702336 -5.207119 12.779307 -5.229816 -22.728260 -0.013374 -4.135775 58.533420 -0.543592 -1.208157 -0.612369 -0.178600 -0.000000 -74.470900 1.496544 0.314833 10.795101 -0.655352 0.674506 -1.447587 -6.475092 0.668220 -2.757167 10.714267 -5.359923 -6.332787 -2.744839 -0.193592 -0.112298 0.000000 0.000000 0.000000 -0.537888 7.832333 2.365209 -69.442809 22.882212 7.587447 -0.081776 -89.159361 -0.030767 9.182214 3.053437 0.236602 -0.131857 0.163898 0.000000 0.000000 0.000000 0.000000 0.000000 0.000000 0.000000 10.221102 1.527380 0.685484 66.584805 0.075058 12.406484 179.653934 83.510221 179.986310 -2.507673 4.515661 -0.109971 0.050755 -0.452639 0.000000 0.000000 0.000000 0.000000 0.000000 0.000000 0.000000 
-10.754667 15.577731 -3.371602 -61.325869 82.348961 -31.746765 -8.700494 -3.279418 -1.975367 -4.663234 2.001278 -68.200629 -0.363953 4.349510 61.343412 2.478645 9.626756 -17.936790 -1.510400 -0.000000 -25.169600 11.181301 -1.626473 -5.189002 12.759564 -5.096286 -23.415492 -0.322023 -4.233425 60.736471 -0.747446 -2.558621 0.563318 -0.373500 0.000000 -72.547701 1.508029 0.237721 10.855965 -0.665501 0.589899 -1.429489 -6.551693 0.582529 -2.740106 10.665561 -5.360655 -6.248558 -2.808604 -0.198875 -0.088546 0.000000 0.000000 0.000000 -0.757268 7.410807 2.341788 -68.604176 21.200062 7.893733 -0.111148 -88.220013 -0.033296 9.699870 3.449201 0.284344 -0.143880 0.161094 0.000000 0.000000 0.000000 0.000000 0.000000 0.000000 0.000000 10.555771 1.318335 0.722321 66.958652 -0.485182 12.543505 179.731401 84.987647 179.985126 -2.736015 4.630438 -0.122580 0.052049 -0.443778 0.000000 0.000000 0.000000 0.000000 0.000000 0.000000 0.000000 
-10.574040 15.567697 -3.372367 -60.312595 82.258128 -30.945618 -8.759188 -3.231744 -2.059457 -4.673768 2.131326 -67.475844 -0.349024 4.383330 62.090653 2.580884 10.040737 -19.044591 -1.794300 0.000000 -26.331100 11.256314 -1.535788 -5.208792 12.746760 -5.122401 -24.256635 -0.600522 -4.335772 62.963633 -0.975431 -4.062337 1.353742 -0.622300 0.000001 -70.120400 1.527501 0.149443 10.936058 -0.671949 0.494771 -1.404631 -6.621104 0.486598 -2.717966 10.591051 -5.368974 -6.160505 -2.870695 -0.203963 -0.064612 0.000000 0.000000 0.000000 -0.972059 6.954835 2.323231 -67.730239 19.390233 8.193137 -0.143411 -87.255101 -0.036108 10.224322 3.839261 0.335584 -0.156032 0.159155 0.000000 0.000000 0.000000 0.000000 0.000000 0.000000 0.000000 10.864292 1.080592 0.757309 67.344135 -1.041908 12.591248 179.811210 86.557967 179.982949 -3.138239 4.688700 -0.141988 0.056122 -0.433643 0.000000 0.000000 0.000000 0.000000 0.000000 0.000000 0.000000 
-10.397745 15.563322 -3.372126 -59.374766 82.216456 -30.195740 -8.822783 -3.178180 -2.132756 -4.705658 2.219841 -66.717701 -0.338862 4.403098 62.694591 2.668544 10.408115 -19.982233 -2.052001 0.000000 -27.449700 11.322638 -1.432050 -5.260893 12.752384 -5.277974 -25.243877 -0.849568 -4.444726 65.187890 -1.221431 -5.688660 1.732925 -0.901300 -0.000000 -67.298000 1.558751 0.054218 11.034900 -0.673826 0.393545 -1.372830 -6.682144 0.384916 -2.690103 10.494698 -5.383371 -6.070836 -2.929704 -0.208735 -0.041115 0.000000 0.000000 0.000000 -1.166055 6.479491 2.309722 -66.844623 17.465041 8.468955 -0.178093 -86.285271 -0.039174 10.739128 4.208410 0.388018 -0.168050 0.158381 0.000000 0.000000 0.000000 0.000000 0.000000 0.000000 0.000000 11.141789 0.822441 0.790664 67.729589 -1.589604 12.555168 179.890017 88.194039 179.979735 -3.734880 4.659943 -0.167596 0.063141 -0.422046 0.000000 0.000000 0.000000 0.000000 0.000000 0.000000 0.000000 
-10.225811 15.564312 -3.371015 -58.481694 82.203573 -29.464664 -8.891448 -3.121318 -2.198947 -4.749454 2.294898 -65.943002 -0.331140 4.412917 63.176349 2.738248 10.721083 -20.723542 -2.270300 0.000000 -28.478100 11.378096 -1.317857 -5.337438 12.789886 -5.527054 -26.371408 -1.070803 -4.561769 67.384522 -1.477836 -7.384870 1.690773 -1.174900 0.000000 -64.028500 1.605697 -0.043775 11.149167 -0.670555 0.290450 -1.335960 -6.734759 0.281596 -2.661094 10.380904 -5.397821 -5.976470 -2.984642 -0.213185 -0.017012 0.000000 0.000000 0.000000 -1.327387 5.977061 2.300764 -65.969096 15.467972 8.687530 -0.213903 -85.348567 -0.042434 11.226814 4.541459 0.439048 -0.179603 0.158993 0.000000 0.000000 0.000000 0.000000 0.000000 0.000000 0.000000 11.384047 0.557069 0.824614 68.105005 -2.133500 12.441572 179.964129 89.859686 179.975501 -4.536304 4.514450 -0.197304 0.073059 -0.408907 0.000000 0.000000 0.000000 0.000000 0.000000 0.000000 0.000000 
